<?xml version="1.0" standalone="no"?>
<!DOCTYPE svg PUBLIC "-//W3C//DTD SVG 20010904//EN"
 "http://www.w3.org/TR/2001/REC-SVG-20010904/DTD/svg10.dtd">
<svg version="1.0" xmlns="http://www.w3.org/2000/svg"
 width="217.000000pt" height="218.000000pt" viewBox="0 0 217.000000 218.000000"
 preserveAspectRatio="xMidYMid meet">

<g transform="translate(0.000000,218.000000) scale(0.100000,-0.100000)"
fill="#000000" stroke="none">
<path d="M90 1930 l0 -170 170 0 170 0 0 170 0 170 -170 0 -170 0 0 -170z
m290 0 l0 -120 -120 0 -120 0 0 120 0 120 120 0 120 0 0 -120z"/>
<path d="M190 1930 l0 -70 70 0 70 0 0 70 0 70 -70 0 -70 0 0 -70z"/>
<path d="M530 2075 c0 -20 5 -25 25 -25 20 0 25 -5 25 -25 0 -23 -3 -25 -50
-25 l-50 0 0 -50 c0 -47 2 -50 25 -50 23 0 25 -4 25 -45 0 -41 -2 -45 -25 -45
-20 0 -25 -5 -25 -25 0 -20 5 -25 25 -25 23 0 25 -3 25 -50 0 -47 -2 -50 -25
-50 -20 0 -25 5 -25 25 0 23 -3 25 -50 25 -47 0 -50 -2 -50 -25 0 -20 5 -25
25 -25 20 0 25 -5 25 -25 0 -23 -3 -25 -50 -25 -47 0 -50 -2 -50 -25 0 -18 -5
-25 -20 -25 -15 0 -20 7 -20 25 0 23 -3 25 -50 25 -47 0 -50 2 -50 25 0 23 -3
25 -50 25 l-50 0 0 -50 0 -50 50 0 c47 0 50 -2 50 -25 0 -23 -3 -25 -50 -25
-43 0 -50 -3 -50 -20 0 -15 7 -20 25 -20 24 0 25 -2 25 -75 0 -73 -1 -75 -25
-75 -20 0 -25 -5 -25 -25 0 -20 5 -25 25 -25 20 0 25 5 25 25 0 23 3 25 50 25
47 0 50 -2 50 -25 0 -20 -5 -25 -25 -25 -20 0 -25 -5 -25 -25 0 -23 -3 -25
-50 -25 l-50 0 0 -50 c0 -47 2 -50 25 -50 18 0 25 -5 25 -20 0 -15 -7 -20 -25
-20 -20 0 -25 -5 -25 -25 0 -20 5 -25 25 -25 20 0 25 5 25 25 0 20 5 25 25 25
23 0 25 4 25 45 l0 45 145 0 145 0 0 75 0 75 50 0 c47 0 50 -2 50 -25 0 -20
-5 -25 -25 -25 -23 0 -25 -3 -25 -50 0 -47 2 -50 25 -50 20 0 25 -5 25 -25 0
-23 -3 -25 -50 -25 -43 0 -50 -3 -50 -20 0 -15 7 -20 25 -20 20 0 25 -5 25
-25 0 -20 5 -25 25 -25 20 0 25 -5 25 -25 0 -23 -3 -25 -50 -25 -47 0 -50 -2
-50 -25 0 -23 -3 -25 -50 -25 -47 0 -50 2 -50 25 0 20 5 25 25 25 20 0 25 5
25 25 0 20 -5 25 -25 25 -20 0 -25 -5 -25 -25 0 -23 -4 -25 -45 -25 -41 0 -45
-2 -45 -25 0 -18 5 -25 20 -25 17 0 20 -7 20 -50 l0 -50 -45 0 c-41 0 -45 -2
-45 -25 0 -20 -5 -25 -25 -25 -23 0 -25 3 -25 50 0 47 -2 50 -25 50 -23 0 -25
3 -25 50 0 47 -2 50 -25 50 -24 0 -25 -2 -25 -75 0 -73 1 -75 25 -75 20 0 25
-5 25 -25 0 -20 -5 -25 -25 -25 l-25 0 0 -145 0 -145 120 0 120 0 0 25 c0 18
-5 25 -20 25 -15 0 -20 7 -20 25 0 18 5 25 20 25 15 0 20 7 20 25 0 23 -4 25
-45 25 -41 0 -45 2 -45 25 0 20 -5 25 -25 25 -18 0 -25 5 -25 20 0 17 7 20 50
20 47 0 50 2 50 25 0 18 5 25 20 25 15 0 20 7 20 25 0 20 5 25 25 25 20 0 25
-5 25 -25 0 -24 2 -25 75 -25 l75 0 0 -45 c0 -41 -2 -45 -25 -45 -18 0 -25 5
-25 20 0 17 -7 20 -50 20 -43 0 -50 -3 -50 -20 0 -15 7 -20 25 -20 20 0 25 -5
25 -25 0 -20 -5 -25 -25 -25 -20 0 -25 -5 -25 -25 0 -20 5 -25 25 -25 20 0 25
-5 25 -25 0 -20 -5 -25 -25 -25 -20 0 -25 -5 -25 -25 0 -23 3 -25 50 -25 l50
0 0 -50 c0 -47 2 -50 25 -50 20 0 25 -5 25 -25 0 -20 -5 -25 -25 -25 -23 0
-25 -4 -25 -45 0 -41 2 -45 25 -45 23 0 25 -3 25 -50 0 -47 2 -50 25 -50 23 0
25 3 25 50 0 47 2 50 25 50 20 0 25 -5 25 -25 0 -20 5 -25 25 -25 20 0 25 -5
25 -25 0 -20 -5 -25 -25 -25 -20 0 -25 -5 -25 -25 0 -20 5 -25 25 -25 20 0 25
5 25 25 0 18 5 25 20 25 15 0 20 -7 20 -25 0 -20 5 -25 25 -25 l25 0 0 100 0
100 50 0 c47 0 50 -2 50 -25 0 -20 5 -25 25 -25 24 0 25 -2 25 -75 l0 -75 95
0 c95 0 95 0 95 25 0 23 3 25 50 25 47 0 50 2 50 25 0 20 5 25 25 25 20 0 25
-5 25 -25 0 -20 5 -25 25 -25 23 0 25 3 25 50 l0 50 -75 0 c-73 0 -75 1 -75
25 0 20 -5 25 -25 25 -20 0 -25 -5 -25 -25 0 -18 -5 -25 -20 -25 -15 0 -20 -7
-20 -25 0 -23 -3 -25 -50 -25 -47 0 -50 2 -50 25 0 20 5 25 25 25 20 0 25 5
25 25 0 20 -5 25 -25 25 -23 0 -25 4 -25 45 0 41 2 45 25 45 20 0 25 5 25 25
0 24 2 25 70 25 68 0 70 -1 70 -25 0 -20 -5 -25 -25 -25 -20 0 -25 -5 -25 -25
0 -23 3 -25 50 -25 43 0 50 -3 50 -20 0 -17 7 -20 50 -20 43 0 50 3 50 20 0
15 7 20 25 20 20 0 25 5 25 25 0 23 3 25 50 25 47 0 50 2 50 25 0 24 2 25 70
25 68 0 70 -1 70 -25 0 -20 -5 -25 -25 -25 -20 0 -25 -5 -25 -25 0 -20 -5 -25
-25 -25 -18 0 -25 -5 -25 -20 0 -13 -7 -20 -20 -20 -13 0 -20 7 -20 20 0 15
-7 20 -25 20 -23 0 -25 -4 -25 -45 0 -41 -2 -45 -25 -45 -23 0 -25 -3 -25 -50
0 -47 2 -50 25 -50 20 0 25 5 25 25 0 20 5 25 25 25 23 0 25 -3 25 -50 0 -43
3 -50 20 -50 17 0 20 7 20 50 0 43 -3 50 -20 50 -15 0 -20 7 -20 25 0 18 5 25
20 25 15 0 20 7 20 25 0 20 5 25 25 25 23 0 25 -3 25 -50 0 -47 2 -50 25 -50
20 0 25 -5 25 -25 0 -20 5 -25 25 -25 20 0 25 -5 25 -25 0 -24 2 -25 75 -25
73 0 75 1 75 25 0 24 -2 25 -75 25 l-75 0 0 50 c0 47 -2 50 -25 50 -20 0 -25
5 -25 25 0 23 3 25 50 25 l50 0 0 -50 c0 -47 2 -50 25 -50 23 0 25 3 25 50 l0
50 70 0 c68 0 70 -1 70 -25 0 -23 -4 -25 -45 -25 -41 0 -45 -2 -45 -25 0 -20
5 -25 25 -25 23 0 25 -3 25 -50 0 -43 3 -50 20 -50 15 0 20 7 20 25 0 23 3 25
50 25 47 0 50 2 50 25 0 20 5 25 25 25 20 0 25 -5 25 -25 0 -20 5 -25 25 -25
l25 0 0 120 0 120 -25 0 c-20 0 -25 -5 -25 -25 0 -20 -5 -25 -25 -25 -18 0
-25 -5 -25 -20 0 -17 -7 -20 -50 -20 -43 0 -50 3 -50 20 0 15 7 20 25 20 20 0
25 5 25 25 0 20 5 25 25 25 20 0 25 5 25 25 0 20 5 25 25 25 20 0 25 5 25 25
0 20 5 25 25 25 20 0 25 5 25 25 0 20 -5 25 -25 25 -20 0 -25 5 -25 25 0 20 5
25 25 25 20 0 25 5 25 25 0 20 -5 25 -25 25 -20 0 -25 5 -25 25 0 20 5 25 25
25 18 0 25 5 25 20 0 17 -7 20 -50 20 -47 0 -50 2 -50 25 0 23 3 25 50 25 l50
0 0 75 0 75 -50 0 -50 0 0 -75 0 -75 -95 0 -95 0 0 -45 c0 -41 -2 -45 -25 -45
-18 0 -25 5 -25 20 0 17 -7 20 -50 20 l-50 0 0 50 c0 47 2 50 25 50 20 0 25
-5 25 -25 0 -20 5 -25 25 -25 20 0 25 5 25 25 0 25 0 25 95 25 95 0 95 0 95
25 0 23 -4 25 -45 25 -41 0 -45 2 -45 25 0 23 4 25 45 25 41 0 45 2 45 25 0
23 -4 25 -45 25 -41 0 -45 2 -45 25 0 18 5 25 20 25 15 0 20 7 20 25 0 18 -5
25 -20 25 -13 0 -20 7 -20 20 0 13 7 20 20 20 15 0 20 7 20 25 0 18 -5 25 -20
25 -15 0 -20 -7 -20 -25 0 -23 -3 -25 -50 -25 -43 0 -50 -3 -50 -20 0 -15 -7
-20 -25 -20 -18 0 -25 5 -25 20 0 15 -7 20 -25 20 -20 0 -25 5 -25 25 0 24 2
25 75 25 73 0 75 1 75 25 0 24 -2 25 -75 25 -73 0 -75 1 -75 25 0 24 -2 25
-75 25 -73 0 -75 1 -75 25 0 18 -5 25 -20 25 -15 0 -20 7 -20 25 0 23 4 25 45
25 41 0 45 -2 45 -25 0 -20 5 -25 25 -25 20 0 25 5 25 25 0 20 5 25 25 25 20
0 25 -5 25 -25 0 -23 3 -25 50 -25 47 0 50 2 50 25 0 20 -5 25 -25 25 -23 0
-25 3 -25 50 l0 50 -50 0 c-43 0 -50 3 -50 20 0 15 7 20 25 20 20 0 25 5 25
25 0 20 5 25 25 25 20 0 25 -5 25 -25 0 -20 5 -25 25 -25 23 0 25 -4 25 -45 0
-41 2 -45 25 -45 20 0 25 -5 25 -25 0 -20 5 -25 25 -25 20 0 25 5 25 25 0 18
5 25 20 25 18 0 20 -7 20 -75 0 -68 -2 -75 -20 -75 -15 0 -20 7 -20 25 0 20
-5 25 -25 25 -20 0 -25 -5 -25 -25 0 -20 5 -25 25 -25 20 0 25 -5 25 -25 0
-18 5 -25 20 -25 15 0 20 7 20 25 0 20 5 25 25 25 20 0 25 5 25 25 0 20 5 25
25 25 20 0 25 5 25 25 0 20 5 25 25 25 20 0 25 -5 25 -25 0 -20 5 -25 25 -25
l25 0 0 120 0 120 -25 0 c-23 0 -25 -4 -25 -45 0 -41 -2 -45 -25 -45 -20 0
-25 -5 -25 -25 0 -23 -3 -25 -50 -25 -47 0 -50 2 -50 25 0 20 5 25 25 25 23 0
25 4 25 45 0 41 -2 45 -25 45 -23 0 -25 -4 -25 -45 0 -38 -3 -45 -20 -45 -15
0 -20 -7 -20 -25 0 -20 -5 -25 -25 -25 -23 0 -25 4 -25 45 0 41 2 45 25 45 23
0 25 3 25 50 0 43 3 50 20 50 15 0 20 7 20 25 0 20 5 25 25 25 20 0 25 -5 25
-25 0 -23 3 -25 50 -25 47 0 50 2 50 25 0 20 -5 25 -25 25 -20 0 -25 5 -25 25
0 23 -3 25 -50 25 -47 0 -50 -2 -50 -25 0 -23 -4 -25 -45 -25 l-45 0 0 -75 c0
-73 -1 -75 -25 -75 -23 0 -25 3 -25 50 l0 50 -50 0 -50 0 0 50 c0 47 -2 50
-25 50 -24 0 -25 2 -25 75 0 73 1 75 25 75 23 0 25 -3 25 -50 0 -47 2 -50 25
-50 24 0 25 2 25 70 l0 70 -100 0 -100 0 0 25 c0 24 2 25 75 25 73 0 75 1 75
25 0 20 5 25 25 25 20 0 25 5 25 25 0 23 -3 25 -50 25 -47 0 -50 -2 -50 -25 0
-20 -5 -25 -25 -25 -20 0 -25 5 -25 25 0 20 -5 25 -25 25 -20 0 -25 -5 -25
-25 0 -23 -4 -25 -45 -25 l-45 0 0 50 0 50 -50 0 c-47 0 -50 -2 -50 -25 0 -20
-5 -25 -25 -25 -20 0 -25 5 -25 25 0 20 -5 25 -25 25 -20 0 -25 -5 -25 -25 0
-23 -3 -25 -50 -25 -47 0 -50 2 -50 25 0 23 -4 25 -45 25 -41 0 -45 -2 -45
-25 0 -23 -3 -25 -50 -25 -47 0 -50 2 -50 25 0 20 -5 25 -25 25 -20 0 -25 -5
-25 -25 0 -23 -3 -25 -50 -25 -47 0 -50 2 -50 25 0 20 -5 25 -25 25 -20 0 -25
-5 -25 -25 0 -20 5 -25 25 -25 l25 0 0 -145 0 -145 -25 0 c-20 0 -25 5 -25 25
0 18 -5 25 -20 25 -18 0 -20 -7 -20 -75 0 -73 -1 -75 -25 -75 -20 0 -25 5 -25
25 0 20 -5 25 -25 25 -20 0 -25 5 -25 25 0 20 5 25 25 25 20 0 25 5 25 25 0
20 -5 25 -25 25 -20 0 -25 5 -25 25 0 24 2 25 70 25 l70 0 0 70 c0 63 -2 70
-20 70 -17 0 -20 7 -20 50 l0 50 -75 0 c-73 0 -75 -1 -75 -25z m580 -75 c0
-47 2 -50 25 -50 25 0 25 0 25 -95 0 -95 0 -95 25 -95 25 0 25 0 25 95 0 95 0
95 25 95 20 0 25 -5 25 -25 0 -20 5 -25 25 -25 20 0 25 5 25 25 0 20 5 25 25
25 20 0 25 -5 25 -25 0 -23 3 -25 50 -25 l50 0 0 -70 c0 -63 2 -70 20 -70 17
0 20 7 20 50 0 47 2 50 25 50 24 0 25 -2 25 -75 0 -73 1 -75 25 -75 20 0 25
-5 25 -25 0 -20 -5 -25 -25 -25 -20 0 -25 -5 -25 -25 0 -20 -5 -25 -25 -25
-23 0 -25 -3 -25 -50 0 -47 2 -50 25 -50 18 0 25 -5 25 -20 0 -15 7 -20 25
-20 23 0 25 -3 25 -50 0 -47 -2 -50 -25 -50 -20 0 -25 5 -25 25 0 20 -5 25
-25 25 -23 0 -25 4 -25 45 l0 45 -70 0 c-63 0 -70 -2 -70 -20 0 -17 7 -20 50
-20 l50 0 0 -50 c0 -47 -2 -50 -25 -50 -20 0 -25 -5 -25 -25 0 -20 5 -25 25
-25 20 0 25 -5 25 -25 0 -20 -5 -25 -25 -25 -20 0 -25 5 -25 25 0 23 -3 25
-50 25 l-50 0 0 -50 0 -50 50 0 c47 0 50 -2 50 -25 0 -20 5 -25 25 -25 20 0
25 5 25 25 0 18 5 25 20 25 15 0 20 -7 20 -25 0 -23 3 -25 50 -25 47 0 50 -2
50 -25 0 -20 -5 -25 -25 -25 -18 0 -25 -5 -25 -20 0 -15 7 -20 25 -20 20 0 25
-5 25 -25 0 -20 5 -25 25 -25 20 0 25 5 25 25 0 20 5 25 25 25 20 0 25 -5 25
-25 0 -20 -5 -25 -25 -25 -20 0 -25 -5 -25 -25 0 -20 -5 -25 -25 -25 -20 0
-25 -5 -25 -25 0 -20 -5 -25 -25 -25 -20 0 -25 -5 -25 -25 0 -23 3 -25 50 -25
47 0 50 2 50 25 0 20 5 25 25 25 20 0 25 -5 25 -25 0 -20 -5 -25 -25 -25 -20
0 -25 -5 -25 -25 0 -20 -5 -25 -25 -25 -24 0 -25 -2 -25 -70 0 -68 1 -70 25
-70 23 0 25 -3 25 -50 0 -47 2 -50 25 -50 20 0 25 -5 25 -25 0 -20 -5 -25 -25
-25 -20 0 -25 -5 -25 -25 0 -23 -3 -25 -50 -25 -47 0 -50 2 -50 25 0 20 -5 25
-25 25 -20 0 -25 -5 -25 -25 0 -18 -5 -25 -20 -25 -15 0 -20 7 -20 25 0 20 -5
25 -25 25 -20 0 -25 5 -25 25 0 20 5 25 25 25 20 0 25 5 25 25 l0 25 -100 0
-100 0 0 -25 c0 -20 5 -25 25 -25 20 0 25 -5 25 -25 0 -23 -3 -25 -50 -25 -47
0 -50 -2 -50 -25 0 -23 -3 -25 -50 -25 -47 0 -50 2 -50 25 0 18 -5 25 -20 25
-15 0 -20 -7 -20 -25 0 -23 -3 -25 -50 -25 -47 0 -50 -2 -50 -25 0 -24 -2 -25
-75 -25 -73 0 -75 -1 -75 -25 0 -20 5 -25 25 -25 20 0 25 -5 25 -25 0 -20 5
-25 25 -25 18 0 25 -5 25 -20 0 -15 7 -20 25 -20 20 0 25 -5 25 -25 0 -20 -5
-25 -25 -25 -20 0 -25 5 -25 25 0 20 -5 25 -25 25 -18 0 -25 5 -25 20 0 19 -7
20 -95 20 l-95 0 0 75 c0 73 -1 75 -25 75 -20 0 -25 5 -25 25 0 20 -5 25 -25
25 -23 0 -25 -3 -25 -50 0 -47 2 -50 25 -50 23 0 25 -3 25 -50 0 -47 -2 -50
-25 -50 -18 0 -25 -5 -25 -20 0 -15 -7 -20 -25 -20 -18 0 -25 5 -25 20 0 15 7
20 25 20 20 0 25 5 25 25 0 20 -5 25 -25 25 -23 0 -25 3 -25 50 0 47 -2 50
-25 50 -20 0 -25 5 -25 25 0 23 3 25 50 25 47 0 50 2 50 25 0 23 3 25 50 25
l50 0 0 -50 0 -50 45 0 c41 0 45 2 45 25 0 20 5 25 25 25 20 0 25 -5 25 -25 0
-20 5 -25 25 -25 20 0 25 5 25 25 0 20 5 25 25 25 20 0 25 -5 25 -25 0 -20 5
-25 25 -25 20 0 25 5 25 25 0 20 5 25 25 25 20 0 25 5 25 25 0 23 -3 25 -50
25 l-50 0 0 50 c0 47 2 50 25 50 18 0 25 5 25 20 0 15 -7 20 -25 20 -24 0 -25
2 -25 75 0 73 -1 75 -25 75 -20 0 -25 5 -25 25 0 20 -5 25 -25 25 -20 0 -25
-5 -25 -25 0 -23 -3 -25 -50 -25 -47 0 -50 2 -50 25 0 18 -5 25 -20 25 -17 0
-20 -7 -20 -50 l0 -50 95 0 95 0 0 -70 c0 -68 -1 -70 -25 -70 -20 0 -25 -5
-25 -25 0 -20 5 -25 25 -25 20 0 25 -5 25 -25 0 -20 -5 -25 -25 -25 -20 0 -25
5 -25 25 0 20 -5 25 -25 25 -20 0 -25 -5 -25 -25 0 -20 -5 -25 -25 -25 -20 0
-25 5 -25 25 0 18 -5 25 -20 25 -17 0 -20 7 -20 45 0 41 -2 45 -25 45 -23 0
-25 -4 -25 -45 l0 -45 -50 0 c-47 0 -50 2 -50 25 0 20 5 25 25 25 23 0 25 4
25 45 0 41 -2 45 -25 45 -23 0 -25 3 -25 50 l0 50 50 0 c47 0 50 2 50 25 0 20
-5 25 -25 25 -20 0 -25 5 -25 25 0 20 5 25 25 25 20 0 25 5 25 25 0 20 -5 25
-25 25 -23 0 -25 4 -25 45 0 41 2 45 25 45 20 0 25 5 25 25 0 20 5 25 25 25
23 0 25 3 25 50 0 43 3 50 20 50 15 0 20 7 20 25 0 23 -4 25 -45 25 -41 0 -45
2 -45 25 0 23 4 25 45 25 41 0 45 2 45 25 0 23 -4 25 -45 25 l-45 0 0 45 c0
41 -2 45 -25 45 -20 0 -25 5 -25 25 0 20 -5 25 -25 25 -20 0 -25 5 -25 25 0
20 5 25 25 25 20 0 25 -5 25 -25 0 -23 3 -25 50 -25 47 0 50 2 50 25 0 18 5
25 20 25 15 0 20 7 20 25 0 20 5 25 25 25 20 0 25 -5 25 -25 0 -23 3 -25 50
-25 47 0 50 2 50 25 0 20 -5 25 -25 25 l-25 0 0 100 0 100 25 0 c18 0 25 5 25
20 0 15 -7 20 -25 20 -23 0 -25 3 -25 50 l0 50 50 0 c47 0 50 -2 50 -25 0 -20
5 -25 25 -25 20 0 25 -5 25 -25 0 -20 -5 -25 -25 -25 -18 0 -25 -5 -25 -20 0
-15 -7 -20 -25 -20 -24 0 -25 -2 -25 -75 0 -73 1 -75 25 -75 23 0 25 3 25 50
0 47 2 50 25 50 20 0 25 5 25 25 0 20 5 25 25 25 18 0 25 5 25 20 0 17 7 20
45 20 41 0 45 2 45 25 0 23 -4 25 -45 25 l-45 0 0 50 0 50 45 0 45 0 0 -50z
m-530 -215 c0 -20 -5 -25 -25 -25 -20 0 -25 5 -25 25 0 20 5 25 25 25 20 0 25
-5 25 -25z m-100 -200 c0 -20 -5 -25 -25 -25 -20 0 -25 -5 -25 -25 0 -20 -5
-25 -25 -25 -18 0 -25 -5 -25 -20 0 -15 7 -20 25 -20 20 0 25 -5 25 -25 0 -24
2 -25 75 -25 73 0 75 -1 75 -25 0 -23 -3 -25 -50 -25 -47 0 -50 -2 -50 -25 0
-23 -3 -25 -50 -25 -47 0 -50 2 -50 25 0 20 5 25 25 25 20 0 25 5 25 25 0 23
-3 25 -50 25 l-50 0 0 45 c0 41 2 45 25 45 20 0 25 5 25 25 0 20 5 25 25 25
20 0 25 5 25 25 0 20 5 25 25 25 20 0 25 -5 25 -25z m1170 0 c0 -20 -5 -25
-25 -25 -20 0 -25 5 -25 25 0 20 5 25 25 25 20 0 25 -5 25 -25z m-1360 -95 c0
-17 -7 -20 -50 -20 -43 0 -50 3 -50 20 0 17 7 20 50 20 43 0 50 -3 50 -20z m0
-95 c0 -18 5 -25 20 -25 15 0 20 -7 20 -25 0 -18 -5 -25 -20 -25 -15 0 -20 7
-20 25 0 20 -5 25 -25 25 -20 0 -25 5 -25 25 0 20 5 25 25 25 20 0 25 -5 25
-25z m140 -150 c0 -24 -2 -25 -70 -25 -68 0 -70 1 -70 25 0 24 2 25 70 25 68
0 70 -1 70 -25z m1420 -190 c0 -20 -5 -25 -25 -25 -20 0 -25 -5 -25 -25 0 -20
5 -25 25 -25 20 0 25 -5 25 -25 0 -20 -5 -25 -25 -25 -20 0 -25 5 -25 25 0 20
-5 25 -25 25 -23 0 -25 3 -25 50 l0 50 50 0 c47 0 50 -2 50 -25z m-1420 -200
c0 -20 -5 -25 -25 -25 -20 0 -25 5 -25 25 0 20 5 25 25 25 20 0 25 -5 25 -25z
m-240 -100 c0 -20 -5 -25 -25 -25 -20 0 -25 5 -25 25 0 20 5 25 25 25 20 0 25
-5 25 -25z m2000 -45 c0 -15 7 -20 25 -20 18 0 25 5 25 20 0 15 7 20 25 20 24
0 25 -2 25 -70 0 -68 -1 -70 -25 -70 -20 0 -25 -5 -25 -25 0 -23 -4 -25 -45
-25 -41 0 -45 2 -45 25 0 20 -5 25 -25 25 -20 0 -25 -5 -25 -25 0 -20 -5 -25
-25 -25 -23 0 -25 3 -25 50 0 47 -2 50 -25 50 -20 0 -25 5 -25 25 0 20 5 25
25 25 20 0 25 -5 25 -25 0 -20 5 -25 25 -25 20 0 25 5 25 25 0 20 5 25 25 25
18 0 25 5 25 20 0 13 7 20 20 20 13 0 20 -7 20 -20z m-1650 -95 c0 -20 -5 -25
-25 -25 -20 0 -25 5 -25 25 0 20 5 25 25 25 20 0 25 -5 25 -25z m240 0 c0 -20
-5 -25 -25 -25 -20 0 -25 5 -25 25 0 20 5 25 25 25 20 0 25 -5 25 -25z m1370
-200 l0 -75 -75 0 -75 0 0 75 0 75 75 0 75 0 0 -75z m140 50 c0 -23 -3 -25
-50 -25 -47 0 -50 2 -50 25 0 23 3 25 50 25 47 0 50 -2 50 -25z m-630 -50 c0
-23 -3 -25 -50 -25 -47 0 -50 2 -50 25 0 23 3 25 50 25 47 0 50 -2 50 -25z
m240 -95 c0 -15 -7 -20 -25 -20 -18 0 -25 5 -25 20 0 15 7 20 25 20 18 0 25
-5 25 -20z m-880 -70 c0 -43 -3 -50 -20 -50 -17 0 -20 7 -20 50 0 43 3 50 20
50 17 0 20 -7 20 -50z m440 -25 c0 -20 -5 -25 -25 -25 -20 0 -25 5 -25 25 0
20 5 25 25 25 20 0 25 -5 25 -25z m830 0 c0 -20 -5 -25 -25 -25 -20 0 -25 5
-25 25 0 20 5 25 25 25 20 0 25 -5 25 -25z"/>
<path d="M1310 1880 c0 -15 -7 -20 -25 -20 -23 0 -25 -3 -25 -50 0 -47 -2 -50
-25 -50 -20 0 -25 -5 -25 -25 0 -20 -5 -25 -25 -25 -20 0 -25 5 -25 25 0 20
-5 25 -25 25 -20 0 -25 5 -25 25 0 18 -5 25 -20 25 -17 0 -20 -7 -20 -50 0
-47 -2 -50 -25 -50 -23 0 -25 3 -25 50 0 47 -2 50 -25 50 -23 0 -25 -3 -25
-50 0 -47 -2 -50 -25 -50 -20 0 -25 -5 -25 -25 0 -20 5 -25 25 -25 20 0 25 -5
25 -25 0 -23 -3 -25 -50 -25 l-50 0 0 -50 0 -50 75 0 c68 0 75 -2 75 -20 0
-15 -7 -20 -25 -20 -20 0 -25 -5 -25 -25 0 -20 -5 -25 -25 -25 -20 0 -25 5
-25 25 0 20 -5 25 -25 25 -20 0 -25 -5 -25 -25 0 -20 -5 -25 -25 -25 -20 0
-25 -5 -25 -25 0 -23 -3 -25 -50 -25 -47 0 -50 -2 -50 -25 0 -20 5 -25 25 -25
20 0 25 -5 25 -25 0 -20 5 -25 25 -25 20 0 25 -5 25 -25 0 -23 3 -25 50 -25
47 0 50 -2 50 -25 0 -20 5 -25 25 -25 20 0 25 -5 25 -25 0 -20 5 -25 25 -25
24 0 25 -2 25 -70 0 -68 -1 -70 -25 -70 -20 0 -25 5 -25 25 0 20 -5 25 -25 25
-20 0 -25 -5 -25 -25 0 -20 -5 -25 -25 -25 -24 0 -25 2 -25 70 0 68 -1 70 -25
70 -20 0 -25 5 -25 25 0 20 -5 25 -25 25 -20 0 -25 -5 -25 -25 0 -23 -4 -25
-45 -25 l-45 0 0 -70 c0 -68 -1 -70 -25 -70 -20 0 -25 -5 -25 -25 0 -20 5 -25
25 -25 20 0 25 5 25 25 0 23 4 25 45 25 41 0 45 2 45 25 0 20 -5 25 -25 25
-20 0 -25 5 -25 25 0 23 3 25 50 25 l50 0 0 -50 c0 -47 2 -50 25 -50 20 0 25
-5 25 -25 0 -20 5 -25 25 -25 20 0 25 -5 25 -25 0 -20 5 -25 25 -25 20 0 25
-5 25 -25 0 -20 5 -25 25 -25 20 0 25 5 25 25 0 20 -5 25 -25 25 -20 0 -25 5
-25 25 0 20 5 25 25 25 20 0 25 5 25 25 0 20 5 25 25 25 l25 0 0 -100 0 -100
-50 0 c-47 0 -50 -2 -50 -25 0 -25 0 -25 95 -25 88 0 95 -1 95 -20 0 -15 -7
-20 -25 -20 -20 0 -25 -5 -25 -25 0 -18 -5 -25 -20 -25 -15 0 -20 7 -20 25 0
20 -5 25 -25 25 -20 0 -25 -5 -25 -25 0 -20 5 -25 25 -25 20 0 25 -5 25 -25 0
-23 4 -25 45 -25 41 0 45 2 45 25 0 20 5 25 25 25 20 0 25 5 25 25 0 20 5 25
25 25 23 0 25 4 25 45 0 41 2 45 25 45 20 0 25 5 25 25 0 20 5 25 25 25 20 0
25 -5 25 -25 0 -23 3 -25 50 -25 47 0 50 -2 50 -25 0 -23 -3 -25 -50 -25 -43
0 -50 -3 -50 -20 0 -17 7 -20 50 -20 47 0 50 -2 50 -25 0 -18 5 -25 20 -25 15
0 20 -7 20 -25 0 -20 5 -25 25 -25 20 0 25 -5 25 -25 0 -20 5 -25 25 -25 20 0
25 5 25 25 0 20 -5 25 -25 25 -20 0 -25 5 -25 25 0 20 -5 25 -25 25 -24 0 -25
2 -25 70 0 68 1 70 25 70 20 0 25 5 25 25 0 20 -5 25 -25 25 -20 0 -25 -5 -25
-25 0 -18 -5 -25 -20 -25 -17 0 -20 7 -20 50 0 47 -2 50 -25 50 -20 0 -25 -5
-25 -25 0 -20 -5 -25 -25 -25 -23 0 -25 3 -25 50 0 47 2 50 25 50 20 0 25 5
25 25 0 20 5 25 25 25 20 0 25 -5 25 -25 0 -23 4 -25 45 -25 41 0 45 2 45 25
0 20 5 25 25 25 20 0 25 5 25 25 0 20 -5 25 -25 25 -20 0 -25 -5 -25 -25 0
-23 -4 -25 -45 -25 l-45 0 0 70 c0 63 2 70 20 70 15 0 20 7 20 25 0 18 -5 25
-20 25 -15 0 -20 -7 -20 -25 0 -20 -5 -25 -25 -25 -20 0 -25 5 -25 25 0 20 -5
25 -25 25 -20 0 -25 -5 -25 -25 0 -23 -3 -25 -50 -25 l-50 0 0 50 0 50 -50 0
c-47 0 -50 -2 -50 -25 0 -20 5 -25 25 -25 20 0 25 -5 25 -25 0 -20 -5 -25 -25
-25 -18 0 -25 -5 -25 -20 0 -17 -7 -20 -45 -20 -38 0 -45 3 -45 20 0 13 7 20
20 20 18 0 20 7 20 75 0 73 1 75 25 75 20 0 25 5 25 25 0 24 2 25 75 25 73 0
75 1 75 25 0 20 5 25 25 25 23 0 25 3 25 50 0 47 -2 50 -25 50 -18 0 -25 5
-25 20 0 15 7 20 25 20 23 0 25 3 25 50 0 47 2 50 25 50 20 0 25 -5 25 -25 0
-20 5 -25 25 -25 20 0 25 5 25 25 0 18 5 25 20 25 15 0 20 7 20 25 0 20 5 25
25 25 20 0 25 5 25 25 0 20 -5 25 -25 25 -20 0 -25 -5 -25 -25 0 -24 -2 -25
-70 -25 -68 0 -70 1 -70 25 0 20 5 25 25 25 23 0 25 3 25 50 0 47 -2 50 -25
50 -23 0 -25 4 -25 45 0 41 -2 45 -25 45 -18 0 -25 -5 -25 -20z m50 -95 c0
-20 -5 -25 -25 -25 -20 0 -25 -5 -25 -25 0 -20 -5 -25 -25 -25 -24 0 -25 -2
-25 -75 0 -73 -1 -75 -25 -75 -20 0 -25 -5 -25 -25 0 -20 5 -25 25 -25 23 0
25 -4 25 -45 0 -41 2 -45 25 -45 20 0 25 -5 25 -25 0 -20 -5 -25 -25 -25 -20
0 -25 5 -25 25 0 20 -5 25 -25 25 -20 0 -25 5 -25 25 0 23 -3 25 -50 25 -43 0
-50 3 -50 20 0 13 -7 20 -20 20 -17 0 -20 7 -20 50 0 43 3 50 20 50 17 0 20
-7 20 -50 0 -47 2 -50 25 -50 20 0 25 5 25 25 0 20 5 25 25 25 20 0 25 5 25
25 0 20 -5 25 -25 25 -20 0 -25 5 -25 25 0 20 -5 25 -25 25 -20 0 -25 5 -25
25 0 20 5 25 25 25 20 0 25 -5 25 -25 0 -20 5 -25 25 -25 20 0 25 5 25 25 0
20 5 25 25 25 20 0 25 5 25 25 0 20 5 25 25 25 20 0 25 5 25 25 0 20 5 25 25
25 20 0 25 -5 25 -25z m-290 -340 c0 -18 5 -25 20 -25 15 0 20 -7 20 -25 0
-20 5 -25 25 -25 20 0 25 -5 25 -25 0 -20 -5 -25 -25 -25 -20 0 -25 -5 -25
-25 0 -18 -5 -25 -20 -25 -15 0 -20 7 -20 25 0 20 -5 25 -25 25 -20 0 -25 -5
-25 -25 0 -20 -5 -25 -25 -25 -20 0 -25 -5 -25 -25 0 -20 -5 -25 -25 -25 -20
0 -25 5 -25 25 0 23 -3 25 -50 25 l-50 0 0 50 c0 47 2 50 25 50 20 0 25 -5 25
-25 0 -24 2 -25 75 -25 l75 0 0 75 c0 73 1 75 25 75 20 0 25 -5 25 -25z m190
-345 c0 -17 7 -20 50 -20 43 0 50 3 50 20 0 15 7 20 25 20 23 0 25 -4 25 -45
l0 -45 -100 0 -100 0 0 -25 c0 -24 2 -25 75 -25 73 0 75 -1 75 -25 l0 -25
-100 0 -100 0 0 -25 c0 -24 2 -25 75 -25 73 0 75 -1 75 -25 0 -20 -5 -25 -25
-25 -20 0 -25 -5 -25 -25 0 -20 -5 -25 -25 -25 -20 0 -25 -5 -25 -25 0 -20 -5
-25 -25 -25 -20 0 -25 5 -25 25 0 20 -5 25 -25 25 -20 0 -25 5 -25 25 0 20 5
25 25 25 20 0 25 5 25 25 0 20 -5 25 -25 25 -24 0 -25 2 -25 75 l0 75 50 0 50
0 0 45 c0 41 2 45 25 45 18 0 25 -5 25 -20z m-290 -145 c0 -20 -5 -25 -25 -25
-20 0 -25 5 -25 25 0 20 5 25 25 25 20 0 25 -5 25 -25z"/>
<path d="M1070 1345 c0 -18 5 -25 20 -25 15 0 20 7 20 25 0 18 -5 25 -20 25
-15 0 -20 -7 -20 -25z"/>
<path d="M1160 805 c0 -20 5 -25 25 -25 20 0 25 5 25 25 0 20 -5 25 -25 25
-20 0 -25 -5 -25 -25z"/>
<path d="M720 1585 c0 -18 -5 -25 -20 -25 -17 0 -20 -7 -20 -45 0 -38 3 -45
20 -45 15 0 20 -7 20 -25 0 -20 5 -25 25 -25 20 0 25 5 25 25 0 20 5 25 25 25
18 0 25 5 25 20 0 15 -7 20 -25 20 -23 0 -25 3 -25 50 0 47 -2 50 -25 50 -20
0 -25 -5 -25 -25z"/>
<path d="M630 805 c0 -20 5 -25 25 -25 20 0 25 -5 25 -25 0 -18 5 -25 20 -25
13 0 20 -7 20 -20 0 -15 7 -20 25 -20 18 0 25 5 25 20 0 15 7 20 25 20 20 0
25 5 25 25 0 20 -5 25 -25 25 -20 0 -25 -5 -25 -25 0 -20 -5 -25 -25 -25 -20
0 -25 5 -25 25 0 18 -5 25 -20 25 -15 0 -20 7 -20 25 0 20 -5 25 -25 25 -20 0
-25 -5 -25 -25z"/>
<path d="M770 465 c0 -20 -5 -25 -25 -25 -20 0 -25 -5 -25 -25 0 -20 5 -25 25
-25 20 0 25 5 25 25 0 20 5 25 25 25 20 0 25 5 25 25 0 20 -5 25 -25 25 -20 0
-25 -5 -25 -25z"/>
<path d="M1850 640 c0 -43 3 -50 20 -50 17 0 20 7 20 50 0 43 -3 50 -20 50
-17 0 -20 -7 -20 -50z"/>
<path d="M1750 415 c0 -20 5 -25 25 -25 20 0 25 5 25 25 0 20 -5 25 -25 25
-20 0 -25 -5 -25 -25z"/>
<path d="M1750 1930 l0 -170 170 0 170 0 0 170 0 170 -170 0 -170 0 0 -170z
m290 0 l0 -120 -120 0 -120 0 0 120 0 120 120 0 120 0 0 -120z"/>
<path d="M1850 1930 l0 -70 70 0 70 0 0 70 0 70 -70 0 -70 0 0 -70z"/>
<path d="M240 1685 c0 -23 4 -25 45 -25 41 0 45 2 45 25 0 23 -4 25 -45 25
-41 0 -45 -2 -45 -25z"/>
<path d="M2040 1170 c0 -47 -2 -50 -25 -50 -20 0 -25 5 -25 25 0 20 -5 25 -25
25 -24 0 -25 -2 -25 -70 0 -68 1 -70 25 -70 20 0 25 5 25 25 0 23 3 25 50 25
l50 0 0 70 c0 68 -1 70 -25 70 -23 0 -25 -3 -25 -50z"/>
<path d="M290 1075 c0 -38 3 -45 20 -45 17 0 20 7 20 45 0 38 -3 45 -20 45
-17 0 -20 -7 -20 -45z"/>
<path d="M380 1100 c0 -15 7 -20 25 -20 18 0 25 5 25 20 0 15 -7 20 -25 20
-18 0 -25 -5 -25 -20z"/>
<path d="M90 270 l0 -170 170 0 170 0 0 170 0 170 -170 0 -170 0 0 -170z m290
0 l0 -120 -120 0 -120 0 0 120 0 120 120 0 120 0 0 -120z"/>
<path d="M190 270 l0 -70 70 0 70 0 0 70 0 70 -70 0 -70 0 0 -70z"/>
<path d="M820 175 c0 -20 5 -25 25 -25 20 0 25 5 25 25 0 20 -5 25 -25 25 -20
0 -25 -5 -25 -25z"/>
</g>
</svg>
